<svg id="图层_1" data-name="图层 1" xmlns="http://www.w3.org/2000/svg" viewBox="0 0 222.77 166.31"><defs><style>.cls-1{fill:#1983a5;}</style></defs><path class="cls-1" d="M167.1,129.1h0l-.06,0Z" transform="translate(-56.22 -41.92)"/><path class="cls-1" d="M167.1,129.1h0l-.06,0Z" transform="translate(-56.22 -41.92)"/><path class="cls-1" d="M266.45,124.93a2.68,2.68,0,0,0,1.89-2.71,2.7,2.7,0,0,1-1.89,2.71l-.24.08h0Z" transform="translate(-56.22 -41.92)"/><polygon class="cls-1" points="95.66 162.7 95.66 162.7 95.67 162.71 95.66 162.7"/><path class="cls-1" d="M148.7,203.45c-2.19-1.56-7.61-6.49-12-10.59h0c-1.13-.85-2.2-1.74-3.23-2.65-.12-.09-.23-.19-.34-.29l-.26-.24.26.24c.11.1.22.2.34.29,1,.91,2.1,1.8,3.23,2.65,4.35,4.11,9.77,9,12,10.6.25.16.55.38.87.62h0C149.25,203.83,149,203.61,148.7,203.45Z" transform="translate(-56.22 -41.92)"/><path class="cls-1" d="M268.65,125.15a6.84,6.84,0,0,1-1.78,2.28A6.71,6.71,0,0,0,268.65,125.15Z" transform="translate(-56.22 -41.92)"/><path class="cls-1" d="M268.65,125.15a6.71,6.71,0,0,1-1.78,2.28c-.58.4-1.26.48-2.94.53,1.91.94,2.62,1.31,3.52.7C268.12,128.21,268.46,127.16,268.65,125.15Z" transform="translate(-56.22 -41.92)"/><path class="cls-1" d="M154.62,207.62c-1-1.12-2.07-2.17-2.73-3,.69.86,1.49,1.83,2.52,3Z" transform="translate(-56.22 -41.92)"/><path class="cls-1" d="M151.88,204.62c-.11-.09-.07-.17-.09-.26l-.17-.06C151.71,204.4,151.79,204.51,151.88,204.62Z" transform="translate(-56.22 -41.92)"/><path class="cls-1" d="M263.21,106.56c1.3-5.54-1.91-11.88-1.91-11.88a18.35,18.35,0,0,0-5.69,6.39,8.74,8.74,0,0,0-.64,1.54l2.46,1.74a17.14,17.14,0,0,1,.83-1.95c1-2,2.32-4.16,2.32-4.16a7.82,7.82,0,0,1,.42,6.07,9.2,9.2,0,0,1-1.23,2.51l1.6,2.07.4.51.16.21A9.35,9.35,0,0,0,263.21,106.56Z" transform="translate(-56.22 -41.92)"/><path class="cls-1" d="M261.77,109.4l-.4-.51Z" transform="translate(-56.22 -41.92)"/><path class="cls-1" d="M242.8,126.11a32,32,0,0,1,3.54.11c1.29-4.48-.76-8.2-4.72-8.53-1.54-.13-4.08.84-4.58,2a4,4,0,0,0,1.63,5.26A9.93,9.93,0,0,0,242.8,126.11Zm-5-5.17a3.43,3.43,0,0,1,2.53-2.16c.77,0,2.15,1.54,2.16,2.4s-1.33,1.8-2.65,3.4C238.84,122.86,237.65,121.75,237.83,120.94Z" transform="translate(-56.22 -41.92)"/><path class="cls-1" d="M234.36,123.5c.44,4.72,3.84,6.16,8.63,4.64C239.26,128.14,236.24,126.85,234.36,123.5Z" transform="translate(-56.22 -41.92)"/><path class="cls-1" d="M261.37,133.06c.88-.52.51-2.07.23-2.93a1.27,1.27,0,0,0-.84-.8c-4.83-1.44-6.2,2.56-6.2,2.56,2,1.39,3,1.59,4.17,1.58a1.33,1.33,0,0,1,.39-.49l1.52.11h0a8.43,8.43,0,0,0-1,.2.28.28,0,0,0-.14.19,5.3,5.3,0,0,0,0,.95c-.07-.23-.15-.42-.28-.48a8.12,8.12,0,0,1-.9,2.19,5.17,5.17,0,0,1-2.85,1.26.54.54,0,0,0-.39.77h0a.67.67,0,0,0,.78.34c1-.27,3.1-.93,3.51-1.75a2,2,0,0,0,.13-.41c.17.47,1.15,1.06,1.15,1.06l1.71.73a.61.61,0,0,0,.76-.24l.06-.1a.63.63,0,0,0-.39-.93c-1.17-.29-1.83-.64-2.05-1.12a7.74,7.74,0,0,1,0-2.4A3.78,3.78,0,0,0,261.37,133.06Z" transform="translate(-56.22 -41.92)"/><path class="cls-1" d="M268.34,122.22a6.12,6.12,0,0,0-.49-2.48,3.34,3.34,0,0,0-2.93-2.08h0l-.37,0c-3.71.46-3.64,4.15-2.38,8.54a16,16,0,0,0,2.3-.44,9.2,9.2,0,0,0,1.71-.76l0,0h0l.24-.08A2.7,2.7,0,0,0,268.34,122.22Zm-2.89,2.57c-1.05-1.28-.1-2.33.33-3.13a1.3,1.3,0,0,0,.08-.51,1.44,1.44,0,0,0-.24-.82c-.48-.69-1.2-1.34-.66-1.34a1.62,1.62,0,0,1,.4.12,3.37,3.37,0,0,1,2.11,2c.21.65-.41,1.89-1.09,2.67C266.38,123.83,265.72,124.5,265.45,124.79Z" transform="translate(-56.22 -41.92)"/><path class="cls-1" d="M267.85,119.74a6.12,6.12,0,0,1,.49,2.48,6.09,6.09,0,0,0-.49-2.48,3.34,3.34,0,0,0-2.93-2.08h0A3.34,3.34,0,0,1,267.85,119.74Z" transform="translate(-56.22 -41.92)"/><path class="cls-1" d="M151.72,204.23a.17.17,0,0,1,.07.13c.31.12.68.26.72.26l-.42-.38-.47,0Z" transform="translate(-56.22 -41.92)"/><path class="cls-1" d="M132.91,189.67c-.85-.77-1.68-1.56-2.47-2.37C131.23,188.11,132.05,188.9,132.91,189.67Z" transform="translate(-56.22 -41.92)"/><path class="cls-1" d="M151.62,204.22c-.58,0-1.41-.1-2-.15.58.05,1.15.11,1.73.14l.25.09-.06-.08Z" transform="translate(-56.22 -41.92)"/><path class="cls-1" d="M207.76,77.87h0Z" transform="translate(-56.22 -41.92)"/><path class="cls-1" d="M151.62,204.22h-.06l.06.08.17.06a.17.17,0,0,0-.07-.13Z" transform="translate(-56.22 -41.92)"/><path class="cls-1" d="M201.65,76.28Z" transform="translate(-56.22 -41.92)"/><path class="cls-1" d="M257.07,160.88l.05,0Z" transform="translate(-56.22 -41.92)"/><path class="cls-1" d="M273.16,176.13v.06Z" transform="translate(-56.22 -41.92)"/><path class="cls-1" d="M273.14,176.19l0-.06v.06Z" transform="translate(-56.22 -41.92)"/><path class="cls-1" d="M265,176.68v0Z" transform="translate(-56.22 -41.92)"/><path class="cls-1" d="M207.76,77.87h0Z" transform="translate(-56.22 -41.92)"/><path class="cls-1" d="M201.65,76.28Z" transform="translate(-56.22 -41.92)"/><path class="cls-1" d="M148.7,203.45c-2.19-1.56-7.61-6.49-12-10.6h0c-1.13-.85-2.2-1.74-3.23-2.65-.12-.09-.23-.19-.34-.29l-.26-.24.26.24c.11.1.22.2.34.29,1,.91,2.1,1.8,3.23,2.65,4.35,4.11,9.77,9,12,10.6.25.16.55.38.87.62h0C149.25,203.83,149,203.61,148.7,203.45Z" transform="translate(-56.22 -41.92)"/><path class="cls-1" d="M149.64,204.07c.58.05,1.15.11,1.73.14l.25.09.2.24a.57.57,0,0,1,0-.18c.31.12.68.26.72.26l-.42-.38-.47,0Z" transform="translate(-56.22 -41.92)"/><path class="cls-1" d="M131.63,188.48l-.59-.58Z" transform="translate(-56.22 -41.92)"/><path class="cls-1" d="M273.14,176.19l0-.06v.06Z" transform="translate(-56.22 -41.92)"/><path class="cls-1" d="M151.89,204.63c.69.86,1.49,1.83,2.52,3a1.58,1.58,0,0,0,.12.15l-.22-.13-1.6.14a9.39,9.39,0,0,1,1.6,0h.45a2.09,2.09,0,0,0-.14-.17C153.63,206.5,152.55,205.45,151.89,204.63Z" transform="translate(-56.22 -41.92)"/><polygon class="cls-1" points="95.66 162.7 95.67 162.71 95.66 162.71 95.66 162.7"/><path class="cls-1" d="M193.06,121.65c-1,.21-3.22,1-4.44,1.25l-.09,0c-1.61.33-3.64,1-5.26,1.23,0,0-21.88,5.71-30.62,18.71-.12.21-3.08,5.51-3.31,6a33.63,33.63,0,0,0-2.44,10.31c-.35,4.81.16,9,3,19.36-.19-3.29-1.59-12-.14-19.91a28,28,0,0,1,4.77-11.93c4.89-6.95,10.27-10.24,18.07-14.17S189,126.94,197.43,125c9.28-2.15,15.58-6.5,21.69-13.79a86,86,0,0,1,5.9-6.76,20.64,20.64,0,0,0,4,4.27c-2.69-7.59,1.77-14.49,5.43-17.6-.18,1.94.27,3.57,1.24,6,1.7,4.36,5.07,8.57,2.4,13.93a8.31,8.31,0,0,0,2.19-5.4c-.2-2.37-.64-2.84-1.43-5.07-1.26-3.61-3.45-7.13-2.55-11.11,1.49,4,8.79,12.82,8.51,16.26a6.44,6.44,0,0,1,3.77-2,11.3,11.3,0,0,1,4.78.32c3.41,1.09,5.94,2.44,7.88,4.68l.08.1-1.6-2.07a9.2,9.2,0,0,0,1.23-2.51,20,20,0,0,0-2.74-1.91,17.14,17.14,0,0,0-.83,1.95L255,102.61a8.74,8.74,0,0,1,.64-1.54,22.8,22.8,0,0,0-6.12-.66c-3,.1-2.77-1.13-5.71-5-2.2-2.14-6.45-6.52-7.4-7.59a12.66,12.66,0,0,0-1.11-2.33c-4,.76-7,5.44-7,5.44S216.8,114.23,201.68,119C199.05,119.88,195.36,121.15,193.06,121.65Z" transform="translate(-56.22 -41.92)"/><path class="cls-1" d="M180.11,72c-.91,0-1.81,0-2.71.06a68.09,68.09,0,0,0-65.38,68q0,3.28.32,6.5h0s1.37,23.19,17.87,40.42h0l0,0,.82.83.59.58,1.28,1.19.26.24c.11.1.22.2.34.29,1,.91,2.1,1.8,3.23,2.65h0c4.35,4.11,9.77,9,12,10.6.25.16.55.38.87.62h.07l2,.15.47,0a14.68,14.68,0,0,1-4.19-6l-1.48-3.57a30.93,30.93,0,0,1-1.35-4l-1-3.7a63.7,63.7,0,0,1-1.5-6.84,45.92,45.92,0,0,1,.31-21.45.29.29,0,0,1,0-.09A46.57,46.57,0,0,1,150.83,142a46.49,46.49,0,0,1,13.53-56.8,47.31,47.31,0,0,1,4.31-2.93,46.12,46.12,0,0,1,12.8-5.42c.92-.23,1.84-.44,2.78-.62s1.88-.32,2.84-.44a46.13,46.13,0,0,1,11.17-.06c1.14.14,2.27.31,3.39.53h0c.6.11,1.19.23,1.77.37h0a26.69,26.69,0,0,1,4.35,1.22h0A74.85,74.85,0,0,0,180.11,72Z" transform="translate(-56.22 -41.92)"/><path class="cls-1" d="M157,135.05c5.14-4.4,14.8-10,32-13.48a38.52,38.52,0,0,0,2.64-14.13A51.28,51.28,0,0,0,190.1,94.9a12.56,12.56,0,0,1-.9-3.1,12.26,12.26,0,0,1-.19-2.11c.21-9.16,6.81-12.08,12.64-13.41h0C150.43,77.2,155.53,125.57,157,135.05Z" transform="translate(-56.22 -41.92)"/><path class="cls-1" d="M151.89,204.63c.69.86,1.49,1.83,2.52,3a1.58,1.58,0,0,0,.12.15l-.22-.13-1.6.14a9.39,9.39,0,0,1,1.6,0h.45a2.09,2.09,0,0,0-.14-.17C153.63,206.5,152.55,205.45,151.89,204.63Z" transform="translate(-56.22 -41.92)"/><polygon class="cls-1" points="95.66 162.7 95.67 162.71 95.66 162.71 95.66 162.7"/><path class="cls-1" d="M242.09,181.44c.12-.48.54-1.42.84-2.3a2.29,2.29,0,0,0-1.23,1.31,7.22,7.22,0,0,0-.24,2.54c0,.91.08,1.76.17,2.58A16.66,16.66,0,0,1,242.09,181.44Z" transform="translate(-56.22 -41.92)"/><path class="cls-1" d="M270.42,179.39a7.36,7.36,0,0,0-1.81-2.44l0,0-.07,0a17.84,17.84,0,0,1,1.84,2.38C270.37,179.3,270.39,179.35,270.42,179.39Z" transform="translate(-56.22 -41.92)"/><path class="cls-1" d="M273.14,176.19l0-.06v.06Z" transform="translate(-56.22 -41.92)"/><path class="cls-1" d="M241.63,186.19h.06l-.06-.61C241.63,185.77,241.62,186,241.63,186.19Z" transform="translate(-56.22 -41.92)"/><path class="cls-1" d="M278.89,173.21a12.05,12.05,0,0,0-2.31-5.1,24.45,24.45,0,0,0-2.28-3c-.05,0-.21-.19-.44-.37a15.31,15.31,0,0,0-5.27-2.8c-.94-.29-1.72-.61-1.85-1.46-.56-3.81-1.51-4.71-4.11-5.38L260,154.4c-1.49-.41-3.67-1-4.81-.47a6.45,6.45,0,0,0-2.91,2.59c-.56,1.3-.72,1.88.32,2.84.52.49.86,1.6-.4,1.49a17.56,17.56,0,0,0-7.51.78c-.3.12-1.36.61-1.85.81-1.93-1.24-1.87-1.71-3-2.91a10.63,10.63,0,0,1-3-5.84.34.34,0,0,1,.35-.37,63.35,63.35,0,0,0,9.52-.09c12.29-1.71,19.29-6.15,20.68-7,5-3,7-8.76,4.78-15.4-.6-1.81-2.31-2.42-2.83-4.26-.41-1.44-1-5.18-1.21-6.65a55.81,55.81,0,0,0-1.37-6.21,17.13,17.13,0,0,0-3.22-6.75.28.28,0,0,0-.48.1,9,9,0,0,1-1.14,2.53l-.16-.21c1.69,2.36,2.23,5.49,3.15,8.26h0a3.34,3.34,0,0,1,2.93,2.08,6.09,6.09,0,0,1,.49,2.48,2.68,2.68,0,0,1-1.89,2.71l-.24.08h0a13.62,13.62,0,0,0,.57,2.08.25.25,0,0,0,.41.1,6.42,6.42,0,0,0,.84-1,.27.27,0,0,1,.49.19,3.67,3.67,0,0,1-.87,2.13.28.28,0,0,0-.05.34c.25.4.55.77.78,1.21a9.17,9.17,0,0,1,1.08,3.36,10.5,10.5,0,0,1,.2,2.41,7.61,7.61,0,0,1-.82,4c-1.49,2.44-4.76,4.46-6.41,5.39a52.93,52.93,0,0,1-9.21,3.66,63.79,63.79,0,0,1-9.08,1.78h0a54.38,54.38,0,0,1-15-1.49.26.26,0,0,0-.28.42c3.27,4.23,7.19,12.66,13,16.8l.65.44.1.06a13.16,13.16,0,0,0,1.74.92,11.43,11.43,0,0,0,2.36.77,10.72,10.72,0,0,0,2.85.19c3.19-.19,6.09-.62,8.58.42a7,7,0,0,1,2.06,1.3l.29.26c.92.93,1.39,1.38,1,2.07-.09.17-.72,1-.78,1.2-.24.71.32.79.56,1.51h0a3.46,3.46,0,0,1-.13,2.63c-.72,1.14-2.22,2.44-3.62,1.92-2.88-.36-6.29-3.42-8-5a.26.26,0,0,0-.4.06,3.19,3.19,0,0,1-2.3,1.22,20.32,20.32,0,0,1-4.85.05c-3.05-.25-6.38-.83-8.6-1-5.22-.45-10.07-1.67-14.1-5.57-3.37-3.26-4.18-7.55-5.54-11.57-4.38-12.91-10.89-15.64-19.7-16.5a29.44,29.44,0,0,0-8.48.95.26.26,0,0,0,0,.52c2.51.3,6.56.47,8.28.73,5.58.85,12.58,5.48,16.18,14.11,1,2.31,1.81,4.67,2.6,7,2.07,6.29,6.37,10.15,12.68,12a4.76,4.76,0,0,1,3,6.42c-1.54,3.78-4.43,6.27-7.78,8.31-1.73,1.06-2.16,2.86-.75,3.71a11.91,11.91,0,0,0,4.94-.58c3.32-1.14,6.49-1.44,9.5,1a3.65,3.65,0,0,1,1.43,2.4,4.5,4.5,0,0,1-3.58,5,34,34,0,0,1-5.15.8c-5.75.33-11.53-.09-17.28.14-10.57.43-21.15.17-31.73-.1-8.61-.22-17.26.54-25.86.12l.42.38s-.41-.14-.72-.26a.57.57,0,0,0,0,.18l-.2-.24-.25-.09c-.58,0-1.15-.09-1.73-.14h-.07c-.32-.24-.62-.46-.87-.62-2.19-1.56-7.61-6.49-12-10.6-1.13-.85-2.21-1.74-3.23-2.65-.12-.09-.23-.19-.34-.29l-.26-.24-1.28-1.19-.59-.58-.6-.6-.24-.25h0a68.09,68.09,0,0,1-39.92-62,68.89,68.89,0,0,1,.44-7.64,68.09,68.09,0,0,1,59.85-60,67,67,0,0,1,7.8-.46,67.92,67.92,0,0,1,48.78,20.63c.21.09.42.16.62.26h.06a83,83,0,0,0-67.16-36c-46-.7-84.11,36.55-84.44,82.54a83.16,83.16,0,0,0,83.15,83.75c2.51,0,5.07.05,7.52-.17,0,0,2.64,0,5.82-.25h0c24.66.27,49.28-.05,73.94-.09a22.42,22.42,0,0,0,5.41-.7c5.37-1.37,7.84-5.73,6.4-10.92h0c-2.82-5.32-6.39-6-8.7-5.81-3.42.27-2.26-1.08-1.2-2.51a14.84,14.84,0,0,0,3.09-8.12c.08-1.42,1.3-2.18,2.84-2.18,1,0,0-.19,1.75.15.39.07,1.64.64,1.36,1.58a22.17,22.17,0,0,0-.73,6.54c.84,10.64,6.9,18.28,10.13,19.93,4.44,2.26,8.57,3.39,13.06,1.49.53-.22,6.41-2.74,8.44-5,5.84-5.58,7.6-16.39,6.82-19.75-.09-.36-.17-.69-.26-1C275.06,181.41,279.74,180,278.89,173.21ZM154.31,207.79a9.39,9.39,0,0,0-1.6,0l1.6-.14.22.13a1.58,1.58,0,0,1-.12-.15c-1-1.18-1.83-2.15-2.52-3h0c.66.82,1.74,1.87,2.73,3a2.09,2.09,0,0,1,.14.17Zm109.14-7.49s-6.43,5-11,3.54c-3.26-1.05-5.91-3.07-8.5-8-1.53-2.87-1.72-5.63-2.24-9.71h-.06c0-.21,0-.42,0-.62-.09-.82-.15-1.67-.17-2.58a7.22,7.22,0,0,1,.24-2.54,2.29,2.29,0,0,1,1.23-1.31,2.08,2.08,0,0,1,1-.22h.57l1.46-.14,2.41-.23a.23.23,0,0,1,.21.07,17.35,17.35,0,0,0,5.9,3.73c1.94.65,6.05,1.64,9.42-2.45a2,2,0,0,0,.25-.47l.3-.87a7.44,7.44,0,0,0,.46-1.74l.06-.45.07-.21a1.72,1.72,0,0,1,1.85-.35c.64.43,1.38.89,1.64,1.05l.07,0,0,0a7.36,7.36,0,0,1,1.81,2.44,7.23,7.23,0,0,1,.24,3.15C270.66,182.6,271.87,193.22,263.45,200.3Zm9.69-24.11v-.06Zm1.64,0a2.13,2.13,0,0,1-1.41-.75,7.21,7.21,0,0,0-.56-.66,19.7,19.7,0,0,0-9.27-5,9.71,9.71,0,0,0-2.88-2.57c-1.74-1-5.68-1.52-9.36-1.48s-5-.23-5.05-.84c-.07-1.45,5.62-2.07,8-2.52,1.87-.35,5.12.59,5.59-.66.17-1.22-1.82-1.54-2.79-1.78s-2.6-.43-2.8-1.38a2.31,2.31,0,0,1,1.26-2.36c.77-.5,2.12,0,3.07.27s1.73.41,2.52.67c2.75.91,2.83,1.16,3.07,2.72.3,1.94.27,3.58,2.16,4.21a14.45,14.45,0,0,1,6.53,4.45c1.3,1.78,2.85,3.7,2.78,6.4C275.4,175.64,275.6,176.27,274.78,176.19Z" transform="translate(-56.22 -41.92)"/><path class="cls-1" d="M132.91,189.67l-1.28-1.19Z" transform="translate(-56.22 -41.92)"/><path class="cls-1" d="M130.2,187.05l.24.25.6.6-.82-.83Z" transform="translate(-56.22 -41.92)"/></svg>